<mxfile host="app.diagrams.net" modified="2020-09-05T09:06:16.646Z" agent="5.0 (Macintosh; Intel Mac OS X 10_15_6) AppleWebKit/537.36 (KHTML, like Gecko) Chrome/84.0.4147.89 Safari/537.36" etag="BdJG9KEyKIX4muaNjsMo" version="13.6.6" type="github">
  <diagram id="X06MHaF-r-GSOuP-bl4L" name="Page-1">
    <mxGraphModel dx="4175" dy="844" grid="1" gridSize="10" guides="1" tooltips="1" connect="1" arrows="1" fold="1" page="1" pageScale="1" pageWidth="827" pageHeight="1169" math="0" shadow="0">
      <root>
        <mxCell id="0" />
        <mxCell id="1" parent="0" />
        <mxCell id="7S8hIyD1JX0GwFK6pojB-204" value="users" style="shape=table;startSize=30;container=1;collapsible=1;childLayout=tableLayout;fixedRows=1;rowLines=0;fontStyle=1;align=center;resizeLast=1;" vertex="1" parent="1">
          <mxGeometry x="-2440" y="40" width="180" height="250" as="geometry" />
        </mxCell>
        <mxCell id="7S8hIyD1JX0GwFK6pojB-205" value="" style="shape=partialRectangle;collapsible=0;dropTarget=0;pointerEvents=0;fillColor=none;top=0;left=0;bottom=1;right=0;points=[[0,0.5],[1,0.5]];portConstraint=eastwest;" vertex="1" parent="7S8hIyD1JX0GwFK6pojB-204">
          <mxGeometry y="30" width="180" height="30" as="geometry" />
        </mxCell>
        <mxCell id="7S8hIyD1JX0GwFK6pojB-206" value="PK" style="shape=partialRectangle;connectable=0;fillColor=none;top=0;left=0;bottom=0;right=0;fontStyle=1;overflow=hidden;" vertex="1" parent="7S8hIyD1JX0GwFK6pojB-205">
          <mxGeometry width="30" height="30" as="geometry" />
        </mxCell>
        <mxCell id="7S8hIyD1JX0GwFK6pojB-207" value="UniqueID" style="shape=partialRectangle;connectable=0;fillColor=none;top=0;left=0;bottom=0;right=0;align=left;spacingLeft=6;fontStyle=5;overflow=hidden;" vertex="1" parent="7S8hIyD1JX0GwFK6pojB-205">
          <mxGeometry x="30" width="150" height="30" as="geometry" />
        </mxCell>
        <mxCell id="7S8hIyD1JX0GwFK6pojB-208" value="" style="shape=partialRectangle;collapsible=0;dropTarget=0;pointerEvents=0;fillColor=none;top=0;left=0;bottom=0;right=0;points=[[0,0.5],[1,0.5]];portConstraint=eastwest;" vertex="1" parent="7S8hIyD1JX0GwFK6pojB-204">
          <mxGeometry y="60" width="180" height="30" as="geometry" />
        </mxCell>
        <mxCell id="7S8hIyD1JX0GwFK6pojB-209" value="" style="shape=partialRectangle;connectable=0;fillColor=none;top=0;left=0;bottom=0;right=0;editable=1;overflow=hidden;" vertex="1" parent="7S8hIyD1JX0GwFK6pojB-208">
          <mxGeometry width="30" height="30" as="geometry" />
        </mxCell>
        <mxCell id="7S8hIyD1JX0GwFK6pojB-210" value="provider" style="shape=partialRectangle;connectable=0;fillColor=none;top=0;left=0;bottom=0;right=0;align=left;spacingLeft=6;overflow=hidden;" vertex="1" parent="7S8hIyD1JX0GwFK6pojB-208">
          <mxGeometry x="30" width="150" height="30" as="geometry" />
        </mxCell>
        <mxCell id="7S8hIyD1JX0GwFK6pojB-211" value="" style="shape=partialRectangle;collapsible=0;dropTarget=0;pointerEvents=0;fillColor=none;top=0;left=0;bottom=0;right=0;points=[[0,0.5],[1,0.5]];portConstraint=eastwest;" vertex="1" parent="7S8hIyD1JX0GwFK6pojB-204">
          <mxGeometry y="90" width="180" height="30" as="geometry" />
        </mxCell>
        <mxCell id="7S8hIyD1JX0GwFK6pojB-212" value="" style="shape=partialRectangle;connectable=0;fillColor=none;top=0;left=0;bottom=0;right=0;editable=1;overflow=hidden;" vertex="1" parent="7S8hIyD1JX0GwFK6pojB-211">
          <mxGeometry width="30" height="30" as="geometry" />
        </mxCell>
        <mxCell id="7S8hIyD1JX0GwFK6pojB-213" value="uid" style="shape=partialRectangle;connectable=0;fillColor=none;top=0;left=0;bottom=0;right=0;align=left;spacingLeft=6;overflow=hidden;" vertex="1" parent="7S8hIyD1JX0GwFK6pojB-211">
          <mxGeometry x="30" width="150" height="30" as="geometry" />
        </mxCell>
        <mxCell id="7S8hIyD1JX0GwFK6pojB-214" value="" style="shape=partialRectangle;collapsible=0;dropTarget=0;pointerEvents=0;fillColor=none;top=0;left=0;bottom=0;right=0;points=[[0,0.5],[1,0.5]];portConstraint=eastwest;" vertex="1" parent="7S8hIyD1JX0GwFK6pojB-204">
          <mxGeometry y="120" width="180" height="30" as="geometry" />
        </mxCell>
        <mxCell id="7S8hIyD1JX0GwFK6pojB-215" value="" style="shape=partialRectangle;connectable=0;fillColor=none;top=0;left=0;bottom=0;right=0;editable=1;overflow=hidden;" vertex="1" parent="7S8hIyD1JX0GwFK6pojB-214">
          <mxGeometry width="30" height="30" as="geometry" />
        </mxCell>
        <mxCell id="7S8hIyD1JX0GwFK6pojB-216" value="user_name" style="shape=partialRectangle;connectable=0;fillColor=none;top=0;left=0;bottom=0;right=0;align=left;spacingLeft=6;overflow=hidden;" vertex="1" parent="7S8hIyD1JX0GwFK6pojB-214">
          <mxGeometry x="30" width="150" height="30" as="geometry" />
        </mxCell>
        <mxCell id="7S8hIyD1JX0GwFK6pojB-217" value="" style="shape=partialRectangle;collapsible=0;dropTarget=0;pointerEvents=0;fillColor=none;top=0;left=0;bottom=0;right=0;points=[[0,0.5],[1,0.5]];portConstraint=eastwest;" vertex="1" parent="7S8hIyD1JX0GwFK6pojB-204">
          <mxGeometry y="150" width="180" height="30" as="geometry" />
        </mxCell>
        <mxCell id="7S8hIyD1JX0GwFK6pojB-218" value="" style="shape=partialRectangle;connectable=0;fillColor=none;top=0;left=0;bottom=0;right=0;editable=1;overflow=hidden;" vertex="1" parent="7S8hIyD1JX0GwFK6pojB-217">
          <mxGeometry width="30" height="30" as="geometry" />
        </mxCell>
        <mxCell id="7S8hIyD1JX0GwFK6pojB-219" value="image_url" style="shape=partialRectangle;connectable=0;fillColor=none;top=0;left=0;bottom=0;right=0;align=left;spacingLeft=6;overflow=hidden;" vertex="1" parent="7S8hIyD1JX0GwFK6pojB-217">
          <mxGeometry x="30" width="150" height="30" as="geometry" />
        </mxCell>
        <mxCell id="7S8hIyD1JX0GwFK6pojB-220" value="" style="shape=partialRectangle;collapsible=0;dropTarget=0;pointerEvents=0;fillColor=none;top=0;left=0;bottom=0;right=0;points=[[0,0.5],[1,0.5]];portConstraint=eastwest;" vertex="1" parent="7S8hIyD1JX0GwFK6pojB-204">
          <mxGeometry y="180" width="180" height="30" as="geometry" />
        </mxCell>
        <mxCell id="7S8hIyD1JX0GwFK6pojB-221" value="" style="shape=partialRectangle;connectable=0;fillColor=none;top=0;left=0;bottom=0;right=0;editable=1;overflow=hidden;" vertex="1" parent="7S8hIyD1JX0GwFK6pojB-220">
          <mxGeometry width="30" height="30" as="geometry" />
        </mxCell>
        <mxCell id="7S8hIyD1JX0GwFK6pojB-222" value="admin" style="shape=partialRectangle;connectable=0;fillColor=none;top=0;left=0;bottom=0;right=0;align=left;spacingLeft=6;overflow=hidden;" vertex="1" parent="7S8hIyD1JX0GwFK6pojB-220">
          <mxGeometry x="30" width="150" height="30" as="geometry" />
        </mxCell>
        <mxCell id="7S8hIyD1JX0GwFK6pojB-223" value="" style="shape=partialRectangle;collapsible=0;dropTarget=0;pointerEvents=0;fillColor=none;top=0;left=0;bottom=0;right=0;points=[[0,0.5],[1,0.5]];portConstraint=eastwest;" vertex="1" parent="7S8hIyD1JX0GwFK6pojB-204">
          <mxGeometry y="210" width="180" height="30" as="geometry" />
        </mxCell>
        <mxCell id="7S8hIyD1JX0GwFK6pojB-224" value="FK" style="shape=partialRectangle;connectable=0;fillColor=none;top=0;left=0;bottom=0;right=0;editable=1;overflow=hidden;fontStyle=1" vertex="1" parent="7S8hIyD1JX0GwFK6pojB-223">
          <mxGeometry width="30" height="30" as="geometry" />
        </mxCell>
        <mxCell id="7S8hIyD1JX0GwFK6pojB-225" value="atcoder_user_id" style="shape=partialRectangle;connectable=0;fillColor=none;top=0;left=0;bottom=0;right=0;align=left;spacingLeft=6;overflow=hidden;" vertex="1" parent="7S8hIyD1JX0GwFK6pojB-223">
          <mxGeometry x="30" width="150" height="30" as="geometry" />
        </mxCell>
        <mxCell id="7S8hIyD1JX0GwFK6pojB-230" style="edgeStyle=orthogonalEdgeStyle;rounded=0;orthogonalLoop=1;jettySize=auto;html=1;exitX=1;exitY=0.5;exitDx=0;exitDy=0;" edge="1" parent="1" source="7S8hIyD1JX0GwFK6pojB-223" target="7S8hIyD1JX0GwFK6pojB-177">
          <mxGeometry relative="1" as="geometry" />
        </mxCell>
        <mxCell id="7S8hIyD1JX0GwFK6pojB-231" style="edgeStyle=orthogonalEdgeStyle;rounded=0;orthogonalLoop=1;jettySize=auto;html=1;exitX=0;exitY=0.5;exitDx=0;exitDy=0;entryX=0;entryY=0.5;entryDx=0;entryDy=0;" edge="1" parent="1" source="7S8hIyD1JX0GwFK6pojB-7" target="7S8hIyD1JX0GwFK6pojB-205">
          <mxGeometry relative="1" as="geometry" />
        </mxCell>
        <mxCell id="7S8hIyD1JX0GwFK6pojB-232" style="edgeStyle=orthogonalEdgeStyle;rounded=0;orthogonalLoop=1;jettySize=auto;html=1;exitX=0;exitY=0.5;exitDx=0;exitDy=0;entryX=0;entryY=0.5;entryDx=0;entryDy=0;" edge="1" parent="1" source="7S8hIyD1JX0GwFK6pojB-10" target="7S8hIyD1JX0GwFK6pojB-205">
          <mxGeometry relative="1" as="geometry" />
        </mxCell>
        <mxCell id="7S8hIyD1JX0GwFK6pojB-3" value="relationships" style="shape=table;startSize=30;container=1;collapsible=1;childLayout=tableLayout;fixedRows=1;rowLines=0;fontStyle=1;align=center;resizeLast=1;" vertex="1" parent="1">
          <mxGeometry x="-2440" y="400" width="180" height="130" as="geometry" />
        </mxCell>
        <mxCell id="7S8hIyD1JX0GwFK6pojB-4" value="" style="shape=partialRectangle;collapsible=0;dropTarget=0;pointerEvents=0;fillColor=none;top=0;left=0;bottom=1;right=0;points=[[0,0.5],[1,0.5]];portConstraint=eastwest;" vertex="1" parent="7S8hIyD1JX0GwFK6pojB-3">
          <mxGeometry y="30" width="180" height="30" as="geometry" />
        </mxCell>
        <mxCell id="7S8hIyD1JX0GwFK6pojB-5" value="PK" style="shape=partialRectangle;connectable=0;fillColor=none;top=0;left=0;bottom=0;right=0;fontStyle=1;overflow=hidden;" vertex="1" parent="7S8hIyD1JX0GwFK6pojB-4">
          <mxGeometry width="30" height="30" as="geometry" />
        </mxCell>
        <mxCell id="7S8hIyD1JX0GwFK6pojB-6" value="UniqueID" style="shape=partialRectangle;connectable=0;fillColor=none;top=0;left=0;bottom=0;right=0;align=left;spacingLeft=6;fontStyle=5;overflow=hidden;" vertex="1" parent="7S8hIyD1JX0GwFK6pojB-4">
          <mxGeometry x="30" width="150" height="30" as="geometry" />
        </mxCell>
        <mxCell id="7S8hIyD1JX0GwFK6pojB-7" value="" style="shape=partialRectangle;collapsible=0;dropTarget=0;pointerEvents=0;fillColor=none;top=0;left=0;bottom=0;right=0;points=[[0,0.5],[1,0.5]];portConstraint=eastwest;" vertex="1" parent="7S8hIyD1JX0GwFK6pojB-3">
          <mxGeometry y="60" width="180" height="30" as="geometry" />
        </mxCell>
        <mxCell id="7S8hIyD1JX0GwFK6pojB-8" value="FK" style="shape=partialRectangle;connectable=0;fillColor=none;top=0;left=0;bottom=0;right=0;editable=1;overflow=hidden;fontStyle=1" vertex="1" parent="7S8hIyD1JX0GwFK6pojB-7">
          <mxGeometry width="30" height="30" as="geometry" />
        </mxCell>
        <mxCell id="7S8hIyD1JX0GwFK6pojB-9" value="follower_id" style="shape=partialRectangle;connectable=0;fillColor=none;top=0;left=0;bottom=0;right=0;align=left;spacingLeft=6;overflow=hidden;" vertex="1" parent="7S8hIyD1JX0GwFK6pojB-7">
          <mxGeometry x="30" width="150" height="30" as="geometry" />
        </mxCell>
        <mxCell id="7S8hIyD1JX0GwFK6pojB-10" value="" style="shape=partialRectangle;collapsible=0;dropTarget=0;pointerEvents=0;fillColor=none;top=0;left=0;bottom=0;right=0;points=[[0,0.5],[1,0.5]];portConstraint=eastwest;" vertex="1" parent="7S8hIyD1JX0GwFK6pojB-3">
          <mxGeometry y="90" width="180" height="30" as="geometry" />
        </mxCell>
        <mxCell id="7S8hIyD1JX0GwFK6pojB-11" value="FK" style="shape=partialRectangle;connectable=0;fillColor=none;top=0;left=0;bottom=0;right=0;editable=1;overflow=hidden;fontStyle=1" vertex="1" parent="7S8hIyD1JX0GwFK6pojB-10">
          <mxGeometry width="30" height="30" as="geometry" />
        </mxCell>
        <mxCell id="7S8hIyD1JX0GwFK6pojB-12" value="followed_id" style="shape=partialRectangle;connectable=0;fillColor=none;top=0;left=0;bottom=0;right=0;align=left;spacingLeft=6;overflow=hidden;" vertex="1" parent="7S8hIyD1JX0GwFK6pojB-10">
          <mxGeometry x="30" width="150" height="30" as="geometry" />
        </mxCell>
        <mxCell id="7S8hIyD1JX0GwFK6pojB-148" value="submissions" style="shape=table;startSize=30;container=1;collapsible=1;childLayout=tableLayout;fixedRows=1;rowLines=0;fontStyle=1;align=center;resizeLast=1;" vertex="1" parent="1">
          <mxGeometry x="-1880" y="400" width="180" height="310" as="geometry" />
        </mxCell>
        <mxCell id="7S8hIyD1JX0GwFK6pojB-149" value="" style="shape=partialRectangle;collapsible=0;dropTarget=0;pointerEvents=0;fillColor=none;top=0;left=0;bottom=1;right=0;points=[[0,0.5],[1,0.5]];portConstraint=eastwest;" vertex="1" parent="7S8hIyD1JX0GwFK6pojB-148">
          <mxGeometry y="30" width="180" height="30" as="geometry" />
        </mxCell>
        <mxCell id="7S8hIyD1JX0GwFK6pojB-150" value="PK" style="shape=partialRectangle;connectable=0;fillColor=none;top=0;left=0;bottom=0;right=0;fontStyle=1;overflow=hidden;" vertex="1" parent="7S8hIyD1JX0GwFK6pojB-149">
          <mxGeometry width="30" height="30" as="geometry" />
        </mxCell>
        <mxCell id="7S8hIyD1JX0GwFK6pojB-151" value="UniqueID" style="shape=partialRectangle;connectable=0;fillColor=none;top=0;left=0;bottom=0;right=0;align=left;spacingLeft=6;fontStyle=5;overflow=hidden;" vertex="1" parent="7S8hIyD1JX0GwFK6pojB-149">
          <mxGeometry x="30" width="150" height="30" as="geometry" />
        </mxCell>
        <mxCell id="7S8hIyD1JX0GwFK6pojB-152" value="" style="shape=partialRectangle;collapsible=0;dropTarget=0;pointerEvents=0;fillColor=none;top=0;left=0;bottom=0;right=0;points=[[0,0.5],[1,0.5]];portConstraint=eastwest;" vertex="1" parent="7S8hIyD1JX0GwFK6pojB-148">
          <mxGeometry y="60" width="180" height="30" as="geometry" />
        </mxCell>
        <mxCell id="7S8hIyD1JX0GwFK6pojB-153" value="" style="shape=partialRectangle;connectable=0;fillColor=none;top=0;left=0;bottom=0;right=0;editable=1;overflow=hidden;" vertex="1" parent="7S8hIyD1JX0GwFK6pojB-152">
          <mxGeometry width="30" height="30" as="geometry" />
        </mxCell>
        <mxCell id="7S8hIyD1JX0GwFK6pojB-154" value="epoch_second" style="shape=partialRectangle;connectable=0;fillColor=none;top=0;left=0;bottom=0;right=0;align=left;spacingLeft=6;overflow=hidden;" vertex="1" parent="7S8hIyD1JX0GwFK6pojB-152">
          <mxGeometry x="30" width="150" height="30" as="geometry" />
        </mxCell>
        <mxCell id="7S8hIyD1JX0GwFK6pojB-155" value="" style="shape=partialRectangle;collapsible=0;dropTarget=0;pointerEvents=0;fillColor=none;top=0;left=0;bottom=0;right=0;points=[[0,0.5],[1,0.5]];portConstraint=eastwest;" vertex="1" parent="7S8hIyD1JX0GwFK6pojB-148">
          <mxGeometry y="90" width="180" height="30" as="geometry" />
        </mxCell>
        <mxCell id="7S8hIyD1JX0GwFK6pojB-156" value="FK" style="shape=partialRectangle;connectable=0;fillColor=none;top=0;left=0;bottom=0;right=0;editable=1;overflow=hidden;fontStyle=1" vertex="1" parent="7S8hIyD1JX0GwFK6pojB-155">
          <mxGeometry width="30" height="30" as="geometry" />
        </mxCell>
        <mxCell id="7S8hIyD1JX0GwFK6pojB-157" value="atcoder_user_id" style="shape=partialRectangle;connectable=0;fillColor=none;top=0;left=0;bottom=0;right=0;align=left;spacingLeft=6;overflow=hidden;" vertex="1" parent="7S8hIyD1JX0GwFK6pojB-155">
          <mxGeometry x="30" width="150" height="30" as="geometry" />
        </mxCell>
        <mxCell id="7S8hIyD1JX0GwFK6pojB-158" value="" style="shape=partialRectangle;collapsible=0;dropTarget=0;pointerEvents=0;fillColor=none;top=0;left=0;bottom=0;right=0;points=[[0,0.5],[1,0.5]];portConstraint=eastwest;" vertex="1" parent="7S8hIyD1JX0GwFK6pojB-148">
          <mxGeometry y="120" width="180" height="30" as="geometry" />
        </mxCell>
        <mxCell id="7S8hIyD1JX0GwFK6pojB-159" value="" style="shape=partialRectangle;connectable=0;fillColor=none;top=0;left=0;bottom=0;right=0;editable=1;overflow=hidden;" vertex="1" parent="7S8hIyD1JX0GwFK6pojB-158">
          <mxGeometry width="30" height="30" as="geometry" />
        </mxCell>
        <mxCell id="7S8hIyD1JX0GwFK6pojB-160" value="language" style="shape=partialRectangle;connectable=0;fillColor=none;top=0;left=0;bottom=0;right=0;align=left;spacingLeft=6;overflow=hidden;" vertex="1" parent="7S8hIyD1JX0GwFK6pojB-158">
          <mxGeometry x="30" width="150" height="30" as="geometry" />
        </mxCell>
        <mxCell id="7S8hIyD1JX0GwFK6pojB-161" value="" style="shape=partialRectangle;collapsible=0;dropTarget=0;pointerEvents=0;fillColor=none;top=0;left=0;bottom=0;right=0;points=[[0,0.5],[1,0.5]];portConstraint=eastwest;" vertex="1" parent="7S8hIyD1JX0GwFK6pojB-148">
          <mxGeometry y="150" width="180" height="30" as="geometry" />
        </mxCell>
        <mxCell id="7S8hIyD1JX0GwFK6pojB-162" value="" style="shape=partialRectangle;connectable=0;fillColor=none;top=0;left=0;bottom=0;right=0;editable=1;overflow=hidden;" vertex="1" parent="7S8hIyD1JX0GwFK6pojB-161">
          <mxGeometry width="30" height="30" as="geometry" />
        </mxCell>
        <mxCell id="7S8hIyD1JX0GwFK6pojB-163" value="point" style="shape=partialRectangle;connectable=0;fillColor=none;top=0;left=0;bottom=0;right=0;align=left;spacingLeft=6;overflow=hidden;" vertex="1" parent="7S8hIyD1JX0GwFK6pojB-161">
          <mxGeometry x="30" width="150" height="30" as="geometry" />
        </mxCell>
        <mxCell id="7S8hIyD1JX0GwFK6pojB-164" value="" style="shape=partialRectangle;collapsible=0;dropTarget=0;pointerEvents=0;fillColor=none;top=0;left=0;bottom=0;right=0;points=[[0,0.5],[1,0.5]];portConstraint=eastwest;" vertex="1" parent="7S8hIyD1JX0GwFK6pojB-148">
          <mxGeometry y="180" width="180" height="30" as="geometry" />
        </mxCell>
        <mxCell id="7S8hIyD1JX0GwFK6pojB-165" value="" style="shape=partialRectangle;connectable=0;fillColor=none;top=0;left=0;bottom=0;right=0;editable=1;overflow=hidden;" vertex="1" parent="7S8hIyD1JX0GwFK6pojB-164">
          <mxGeometry width="30" height="30" as="geometry" />
        </mxCell>
        <mxCell id="7S8hIyD1JX0GwFK6pojB-166" value="result" style="shape=partialRectangle;connectable=0;fillColor=none;top=0;left=0;bottom=0;right=0;align=left;spacingLeft=6;overflow=hidden;" vertex="1" parent="7S8hIyD1JX0GwFK6pojB-164">
          <mxGeometry x="30" width="150" height="30" as="geometry" />
        </mxCell>
        <mxCell id="7S8hIyD1JX0GwFK6pojB-167" value="" style="shape=partialRectangle;collapsible=0;dropTarget=0;pointerEvents=0;fillColor=none;top=0;left=0;bottom=0;right=0;points=[[0,0.5],[1,0.5]];portConstraint=eastwest;" vertex="1" parent="7S8hIyD1JX0GwFK6pojB-148">
          <mxGeometry y="210" width="180" height="30" as="geometry" />
        </mxCell>
        <mxCell id="7S8hIyD1JX0GwFK6pojB-168" value="FK" style="shape=partialRectangle;connectable=0;fillColor=none;top=0;left=0;bottom=0;right=0;editable=1;overflow=hidden;fontStyle=1" vertex="1" parent="7S8hIyD1JX0GwFK6pojB-167">
          <mxGeometry width="30" height="30" as="geometry" />
        </mxCell>
        <mxCell id="7S8hIyD1JX0GwFK6pojB-169" value="contest_name" style="shape=partialRectangle;connectable=0;fillColor=none;top=0;left=0;bottom=0;right=0;align=left;spacingLeft=6;overflow=hidden;" vertex="1" parent="7S8hIyD1JX0GwFK6pojB-167">
          <mxGeometry x="30" width="150" height="30" as="geometry" />
        </mxCell>
        <mxCell id="7S8hIyD1JX0GwFK6pojB-170" value="" style="shape=partialRectangle;collapsible=0;dropTarget=0;pointerEvents=0;fillColor=none;top=0;left=0;bottom=0;right=0;points=[[0,0.5],[1,0.5]];portConstraint=eastwest;" vertex="1" parent="7S8hIyD1JX0GwFK6pojB-148">
          <mxGeometry y="240" width="180" height="30" as="geometry" />
        </mxCell>
        <mxCell id="7S8hIyD1JX0GwFK6pojB-171" value="FK" style="shape=partialRectangle;connectable=0;fillColor=none;top=0;left=0;bottom=0;right=0;editable=1;overflow=hidden;fontStyle=1" vertex="1" parent="7S8hIyD1JX0GwFK6pojB-170">
          <mxGeometry width="30" height="30" as="geometry" />
        </mxCell>
        <mxCell id="7S8hIyD1JX0GwFK6pojB-172" value="problem_name" style="shape=partialRectangle;connectable=0;fillColor=none;top=0;left=0;bottom=0;right=0;align=left;spacingLeft=6;overflow=hidden;" vertex="1" parent="7S8hIyD1JX0GwFK6pojB-170">
          <mxGeometry x="30" width="150" height="30" as="geometry" />
        </mxCell>
        <mxCell id="7S8hIyD1JX0GwFK6pojB-173" value="" style="shape=partialRectangle;collapsible=0;dropTarget=0;pointerEvents=0;fillColor=none;top=0;left=0;bottom=0;right=0;points=[[0,0.5],[1,0.5]];portConstraint=eastwest;" vertex="1" parent="7S8hIyD1JX0GwFK6pojB-148">
          <mxGeometry y="270" width="180" height="30" as="geometry" />
        </mxCell>
        <mxCell id="7S8hIyD1JX0GwFK6pojB-174" value="" style="shape=partialRectangle;connectable=0;fillColor=none;top=0;left=0;bottom=0;right=0;editable=1;overflow=hidden;fontStyle=1" vertex="1" parent="7S8hIyD1JX0GwFK6pojB-173">
          <mxGeometry width="30" height="30" as="geometry" />
        </mxCell>
        <mxCell id="7S8hIyD1JX0GwFK6pojB-175" value="number" style="shape=partialRectangle;connectable=0;fillColor=none;top=0;left=0;bottom=0;right=0;align=left;spacingLeft=6;overflow=hidden;" vertex="1" parent="7S8hIyD1JX0GwFK6pojB-173">
          <mxGeometry x="30" width="150" height="30" as="geometry" />
        </mxCell>
        <mxCell id="7S8hIyD1JX0GwFK6pojB-246" style="edgeStyle=orthogonalEdgeStyle;rounded=0;orthogonalLoop=1;jettySize=auto;html=1;exitX=0;exitY=0.5;exitDx=0;exitDy=0;entryX=1;entryY=0.5;entryDx=0;entryDy=0;" edge="1" parent="1" source="7S8hIyD1JX0GwFK6pojB-155" target="7S8hIyD1JX0GwFK6pojB-177">
          <mxGeometry relative="1" as="geometry">
            <Array as="points">
              <mxPoint x="-1930" y="505" />
              <mxPoint x="-1930" y="85" />
            </Array>
          </mxGeometry>
        </mxCell>
        <mxCell id="7S8hIyD1JX0GwFK6pojB-176" value="atcoder_users" style="shape=table;startSize=30;container=1;collapsible=1;childLayout=tableLayout;fixedRows=1;rowLines=0;fontStyle=1;align=center;resizeLast=1;" vertex="1" parent="1">
          <mxGeometry x="-2160" y="40" width="180" height="310" as="geometry" />
        </mxCell>
        <mxCell id="7S8hIyD1JX0GwFK6pojB-177" value="" style="shape=partialRectangle;collapsible=0;dropTarget=0;pointerEvents=0;fillColor=none;top=0;left=0;bottom=1;right=0;points=[[0,0.5],[1,0.5]];portConstraint=eastwest;" vertex="1" parent="7S8hIyD1JX0GwFK6pojB-176">
          <mxGeometry y="30" width="180" height="30" as="geometry" />
        </mxCell>
        <mxCell id="7S8hIyD1JX0GwFK6pojB-178" value="PK" style="shape=partialRectangle;connectable=0;fillColor=none;top=0;left=0;bottom=0;right=0;fontStyle=1;overflow=hidden;" vertex="1" parent="7S8hIyD1JX0GwFK6pojB-177">
          <mxGeometry width="30" height="30" as="geometry" />
        </mxCell>
        <mxCell id="7S8hIyD1JX0GwFK6pojB-179" value="UniqueID" style="shape=partialRectangle;connectable=0;fillColor=none;top=0;left=0;bottom=0;right=0;align=left;spacingLeft=6;fontStyle=5;overflow=hidden;" vertex="1" parent="7S8hIyD1JX0GwFK6pojB-177">
          <mxGeometry x="30" width="150" height="30" as="geometry" />
        </mxCell>
        <mxCell id="7S8hIyD1JX0GwFK6pojB-180" value="" style="shape=partialRectangle;collapsible=0;dropTarget=0;pointerEvents=0;fillColor=none;top=0;left=0;bottom=0;right=0;points=[[0,0.5],[1,0.5]];portConstraint=eastwest;" vertex="1" parent="7S8hIyD1JX0GwFK6pojB-176">
          <mxGeometry y="60" width="180" height="30" as="geometry" />
        </mxCell>
        <mxCell id="7S8hIyD1JX0GwFK6pojB-181" value="" style="shape=partialRectangle;connectable=0;fillColor=none;top=0;left=0;bottom=0;right=0;editable=1;overflow=hidden;" vertex="1" parent="7S8hIyD1JX0GwFK6pojB-180">
          <mxGeometry width="30" height="30" as="geometry" />
        </mxCell>
        <mxCell id="7S8hIyD1JX0GwFK6pojB-182" value="atcoder_id" style="shape=partialRectangle;connectable=0;fillColor=none;top=0;left=0;bottom=0;right=0;align=left;spacingLeft=6;overflow=hidden;" vertex="1" parent="7S8hIyD1JX0GwFK6pojB-180">
          <mxGeometry x="30" width="150" height="30" as="geometry" />
        </mxCell>
        <mxCell id="7S8hIyD1JX0GwFK6pojB-183" value="" style="shape=partialRectangle;collapsible=0;dropTarget=0;pointerEvents=0;fillColor=none;top=0;left=0;bottom=0;right=0;points=[[0,0.5],[1,0.5]];portConstraint=eastwest;" vertex="1" parent="7S8hIyD1JX0GwFK6pojB-176">
          <mxGeometry y="90" width="180" height="30" as="geometry" />
        </mxCell>
        <mxCell id="7S8hIyD1JX0GwFK6pojB-184" value="" style="shape=partialRectangle;connectable=0;fillColor=none;top=0;left=0;bottom=0;right=0;editable=1;overflow=hidden;" vertex="1" parent="7S8hIyD1JX0GwFK6pojB-183">
          <mxGeometry width="30" height="30" as="geometry" />
        </mxCell>
        <mxCell id="7S8hIyD1JX0GwFK6pojB-185" value="accepted_count" style="shape=partialRectangle;connectable=0;fillColor=none;top=0;left=0;bottom=0;right=0;align=left;spacingLeft=6;overflow=hidden;" vertex="1" parent="7S8hIyD1JX0GwFK6pojB-183">
          <mxGeometry x="30" width="150" height="30" as="geometry" />
        </mxCell>
        <mxCell id="7S8hIyD1JX0GwFK6pojB-186" value="" style="shape=partialRectangle;collapsible=0;dropTarget=0;pointerEvents=0;fillColor=none;top=0;left=0;bottom=0;right=0;points=[[0,0.5],[1,0.5]];portConstraint=eastwest;" vertex="1" parent="7S8hIyD1JX0GwFK6pojB-176">
          <mxGeometry y="120" width="180" height="30" as="geometry" />
        </mxCell>
        <mxCell id="7S8hIyD1JX0GwFK6pojB-187" value="" style="shape=partialRectangle;connectable=0;fillColor=none;top=0;left=0;bottom=0;right=0;editable=1;overflow=hidden;" vertex="1" parent="7S8hIyD1JX0GwFK6pojB-186">
          <mxGeometry width="30" height="30" as="geometry" />
        </mxCell>
        <mxCell id="7S8hIyD1JX0GwFK6pojB-188" value="accepted_count_rank" style="shape=partialRectangle;connectable=0;fillColor=none;top=0;left=0;bottom=0;right=0;align=left;spacingLeft=6;overflow=hidden;" vertex="1" parent="7S8hIyD1JX0GwFK6pojB-186">
          <mxGeometry x="30" width="150" height="30" as="geometry" />
        </mxCell>
        <mxCell id="7S8hIyD1JX0GwFK6pojB-189" value="" style="shape=partialRectangle;collapsible=0;dropTarget=0;pointerEvents=0;fillColor=none;top=0;left=0;bottom=0;right=0;points=[[0,0.5],[1,0.5]];portConstraint=eastwest;" vertex="1" parent="7S8hIyD1JX0GwFK6pojB-176">
          <mxGeometry y="150" width="180" height="30" as="geometry" />
        </mxCell>
        <mxCell id="7S8hIyD1JX0GwFK6pojB-190" value="" style="shape=partialRectangle;connectable=0;fillColor=none;top=0;left=0;bottom=0;right=0;editable=1;overflow=hidden;" vertex="1" parent="7S8hIyD1JX0GwFK6pojB-189">
          <mxGeometry width="30" height="30" as="geometry" />
        </mxCell>
        <mxCell id="7S8hIyD1JX0GwFK6pojB-191" value="rated_point_sum" style="shape=partialRectangle;connectable=0;fillColor=none;top=0;left=0;bottom=0;right=0;align=left;spacingLeft=6;overflow=hidden;" vertex="1" parent="7S8hIyD1JX0GwFK6pojB-189">
          <mxGeometry x="30" width="150" height="30" as="geometry" />
        </mxCell>
        <mxCell id="7S8hIyD1JX0GwFK6pojB-192" value="" style="shape=partialRectangle;collapsible=0;dropTarget=0;pointerEvents=0;fillColor=none;top=0;left=0;bottom=0;right=0;points=[[0,0.5],[1,0.5]];portConstraint=eastwest;" vertex="1" parent="7S8hIyD1JX0GwFK6pojB-176">
          <mxGeometry y="180" width="180" height="30" as="geometry" />
        </mxCell>
        <mxCell id="7S8hIyD1JX0GwFK6pojB-193" value="" style="shape=partialRectangle;connectable=0;fillColor=none;top=0;left=0;bottom=0;right=0;editable=1;overflow=hidden;" vertex="1" parent="7S8hIyD1JX0GwFK6pojB-192">
          <mxGeometry width="30" height="30" as="geometry" />
        </mxCell>
        <mxCell id="7S8hIyD1JX0GwFK6pojB-194" value="rated_point_sum_rank" style="shape=partialRectangle;connectable=0;fillColor=none;top=0;left=0;bottom=0;right=0;align=left;spacingLeft=6;overflow=hidden;" vertex="1" parent="7S8hIyD1JX0GwFK6pojB-192">
          <mxGeometry x="30" width="150" height="30" as="geometry" />
        </mxCell>
        <mxCell id="7S8hIyD1JX0GwFK6pojB-195" value="" style="shape=partialRectangle;collapsible=0;dropTarget=0;pointerEvents=0;fillColor=none;top=0;left=0;bottom=0;right=0;points=[[0,0.5],[1,0.5]];portConstraint=eastwest;" vertex="1" parent="7S8hIyD1JX0GwFK6pojB-176">
          <mxGeometry y="210" width="180" height="30" as="geometry" />
        </mxCell>
        <mxCell id="7S8hIyD1JX0GwFK6pojB-196" value="" style="shape=partialRectangle;connectable=0;fillColor=none;top=0;left=0;bottom=0;right=0;editable=1;overflow=hidden;" vertex="1" parent="7S8hIyD1JX0GwFK6pojB-195">
          <mxGeometry width="30" height="30" as="geometry" />
        </mxCell>
        <mxCell id="7S8hIyD1JX0GwFK6pojB-197" value="image_url" style="shape=partialRectangle;connectable=0;fillColor=none;top=0;left=0;bottom=0;right=0;align=left;spacingLeft=6;overflow=hidden;" vertex="1" parent="7S8hIyD1JX0GwFK6pojB-195">
          <mxGeometry x="30" width="150" height="30" as="geometry" />
        </mxCell>
        <mxCell id="7S8hIyD1JX0GwFK6pojB-198" value="" style="shape=partialRectangle;collapsible=0;dropTarget=0;pointerEvents=0;fillColor=none;top=0;left=0;bottom=0;right=0;points=[[0,0.5],[1,0.5]];portConstraint=eastwest;" vertex="1" parent="7S8hIyD1JX0GwFK6pojB-176">
          <mxGeometry y="240" width="180" height="30" as="geometry" />
        </mxCell>
        <mxCell id="7S8hIyD1JX0GwFK6pojB-199" value="" style="shape=partialRectangle;connectable=0;fillColor=none;top=0;left=0;bottom=0;right=0;editable=1;overflow=hidden;" vertex="1" parent="7S8hIyD1JX0GwFK6pojB-198">
          <mxGeometry width="30" height="30" as="geometry" />
        </mxCell>
        <mxCell id="7S8hIyD1JX0GwFK6pojB-200" value="rating" style="shape=partialRectangle;connectable=0;fillColor=none;top=0;left=0;bottom=0;right=0;align=left;spacingLeft=6;overflow=hidden;" vertex="1" parent="7S8hIyD1JX0GwFK6pojB-198">
          <mxGeometry x="30" width="150" height="30" as="geometry" />
        </mxCell>
        <mxCell id="7S8hIyD1JX0GwFK6pojB-201" value="" style="shape=partialRectangle;collapsible=0;dropTarget=0;pointerEvents=0;fillColor=none;top=0;left=0;bottom=0;right=0;points=[[0,0.5],[1,0.5]];portConstraint=eastwest;" vertex="1" parent="7S8hIyD1JX0GwFK6pojB-176">
          <mxGeometry y="270" width="180" height="30" as="geometry" />
        </mxCell>
        <mxCell id="7S8hIyD1JX0GwFK6pojB-202" value="" style="shape=partialRectangle;connectable=0;fillColor=none;top=0;left=0;bottom=0;right=0;editable=1;overflow=hidden;" vertex="1" parent="7S8hIyD1JX0GwFK6pojB-201">
          <mxGeometry width="30" height="30" as="geometry" />
        </mxCell>
        <mxCell id="7S8hIyD1JX0GwFK6pojB-203" value="etag" style="shape=partialRectangle;connectable=0;fillColor=none;top=0;left=0;bottom=0;right=0;align=left;spacingLeft=6;overflow=hidden;" vertex="1" parent="7S8hIyD1JX0GwFK6pojB-201">
          <mxGeometry x="30" width="150" height="30" as="geometry" />
        </mxCell>
        <mxCell id="7S8hIyD1JX0GwFK6pojB-87" value="histories" style="shape=table;startSize=30;container=1;collapsible=1;childLayout=tableLayout;fixedRows=1;rowLines=0;fontStyle=1;align=center;resizeLast=1;" vertex="1" parent="1">
          <mxGeometry x="-2160" y="400" width="180" height="370" as="geometry" />
        </mxCell>
        <mxCell id="7S8hIyD1JX0GwFK6pojB-88" value="" style="shape=partialRectangle;collapsible=0;dropTarget=0;pointerEvents=0;fillColor=none;top=0;left=0;bottom=1;right=0;points=[[0,0.5],[1,0.5]];portConstraint=eastwest;" vertex="1" parent="7S8hIyD1JX0GwFK6pojB-87">
          <mxGeometry y="30" width="180" height="30" as="geometry" />
        </mxCell>
        <mxCell id="7S8hIyD1JX0GwFK6pojB-89" value="PK" style="shape=partialRectangle;connectable=0;fillColor=none;top=0;left=0;bottom=0;right=0;fontStyle=1;overflow=hidden;" vertex="1" parent="7S8hIyD1JX0GwFK6pojB-88">
          <mxGeometry width="30" height="30" as="geometry" />
        </mxCell>
        <mxCell id="7S8hIyD1JX0GwFK6pojB-90" value="UniqueID" style="shape=partialRectangle;connectable=0;fillColor=none;top=0;left=0;bottom=0;right=0;align=left;spacingLeft=6;fontStyle=5;overflow=hidden;" vertex="1" parent="7S8hIyD1JX0GwFK6pojB-88">
          <mxGeometry x="30" width="150" height="30" as="geometry" />
        </mxCell>
        <mxCell id="7S8hIyD1JX0GwFK6pojB-91" value="" style="shape=partialRectangle;collapsible=0;dropTarget=0;pointerEvents=0;fillColor=none;top=0;left=0;bottom=0;right=0;points=[[0,0.5],[1,0.5]];portConstraint=eastwest;" vertex="1" parent="7S8hIyD1JX0GwFK6pojB-87">
          <mxGeometry y="60" width="180" height="30" as="geometry" />
        </mxCell>
        <mxCell id="7S8hIyD1JX0GwFK6pojB-92" value="" style="shape=partialRectangle;connectable=0;fillColor=none;top=0;left=0;bottom=0;right=0;editable=1;overflow=hidden;" vertex="1" parent="7S8hIyD1JX0GwFK6pojB-91">
          <mxGeometry width="30" height="30" as="geometry" />
        </mxCell>
        <mxCell id="7S8hIyD1JX0GwFK6pojB-93" value="is_rated" style="shape=partialRectangle;connectable=0;fillColor=none;top=0;left=0;bottom=0;right=0;align=left;spacingLeft=6;overflow=hidden;" vertex="1" parent="7S8hIyD1JX0GwFK6pojB-91">
          <mxGeometry x="30" width="150" height="30" as="geometry" />
        </mxCell>
        <mxCell id="7S8hIyD1JX0GwFK6pojB-94" value="" style="shape=partialRectangle;collapsible=0;dropTarget=0;pointerEvents=0;fillColor=none;top=0;left=0;bottom=0;right=0;points=[[0,0.5],[1,0.5]];portConstraint=eastwest;" vertex="1" parent="7S8hIyD1JX0GwFK6pojB-87">
          <mxGeometry y="90" width="180" height="30" as="geometry" />
        </mxCell>
        <mxCell id="7S8hIyD1JX0GwFK6pojB-95" value="" style="shape=partialRectangle;connectable=0;fillColor=none;top=0;left=0;bottom=0;right=0;editable=1;overflow=hidden;" vertex="1" parent="7S8hIyD1JX0GwFK6pojB-94">
          <mxGeometry width="30" height="30" as="geometry" />
        </mxCell>
        <mxCell id="7S8hIyD1JX0GwFK6pojB-96" value="place" style="shape=partialRectangle;connectable=0;fillColor=none;top=0;left=0;bottom=0;right=0;align=left;spacingLeft=6;overflow=hidden;" vertex="1" parent="7S8hIyD1JX0GwFK6pojB-94">
          <mxGeometry x="30" width="150" height="30" as="geometry" />
        </mxCell>
        <mxCell id="7S8hIyD1JX0GwFK6pojB-97" value="" style="shape=partialRectangle;collapsible=0;dropTarget=0;pointerEvents=0;fillColor=none;top=0;left=0;bottom=0;right=0;points=[[0,0.5],[1,0.5]];portConstraint=eastwest;" vertex="1" parent="7S8hIyD1JX0GwFK6pojB-87">
          <mxGeometry y="120" width="180" height="30" as="geometry" />
        </mxCell>
        <mxCell id="7S8hIyD1JX0GwFK6pojB-98" value="" style="shape=partialRectangle;connectable=0;fillColor=none;top=0;left=0;bottom=0;right=0;editable=1;overflow=hidden;" vertex="1" parent="7S8hIyD1JX0GwFK6pojB-97">
          <mxGeometry width="30" height="30" as="geometry" />
        </mxCell>
        <mxCell id="7S8hIyD1JX0GwFK6pojB-99" value="old_rating" style="shape=partialRectangle;connectable=0;fillColor=none;top=0;left=0;bottom=0;right=0;align=left;spacingLeft=6;overflow=hidden;" vertex="1" parent="7S8hIyD1JX0GwFK6pojB-97">
          <mxGeometry x="30" width="150" height="30" as="geometry" />
        </mxCell>
        <mxCell id="7S8hIyD1JX0GwFK6pojB-100" value="" style="shape=partialRectangle;collapsible=0;dropTarget=0;pointerEvents=0;fillColor=none;top=0;left=0;bottom=0;right=0;points=[[0,0.5],[1,0.5]];portConstraint=eastwest;" vertex="1" parent="7S8hIyD1JX0GwFK6pojB-87">
          <mxGeometry y="150" width="180" height="30" as="geometry" />
        </mxCell>
        <mxCell id="7S8hIyD1JX0GwFK6pojB-101" value="" style="shape=partialRectangle;connectable=0;fillColor=none;top=0;left=0;bottom=0;right=0;editable=1;overflow=hidden;" vertex="1" parent="7S8hIyD1JX0GwFK6pojB-100">
          <mxGeometry width="30" height="30" as="geometry" />
        </mxCell>
        <mxCell id="7S8hIyD1JX0GwFK6pojB-102" value="new_rating" style="shape=partialRectangle;connectable=0;fillColor=none;top=0;left=0;bottom=0;right=0;align=left;spacingLeft=6;overflow=hidden;" vertex="1" parent="7S8hIyD1JX0GwFK6pojB-100">
          <mxGeometry x="30" width="150" height="30" as="geometry" />
        </mxCell>
        <mxCell id="7S8hIyD1JX0GwFK6pojB-103" value="" style="shape=partialRectangle;collapsible=0;dropTarget=0;pointerEvents=0;fillColor=none;top=0;left=0;bottom=0;right=0;points=[[0,0.5],[1,0.5]];portConstraint=eastwest;" vertex="1" parent="7S8hIyD1JX0GwFK6pojB-87">
          <mxGeometry y="180" width="180" height="30" as="geometry" />
        </mxCell>
        <mxCell id="7S8hIyD1JX0GwFK6pojB-104" value="" style="shape=partialRectangle;connectable=0;fillColor=none;top=0;left=0;bottom=0;right=0;editable=1;overflow=hidden;" vertex="1" parent="7S8hIyD1JX0GwFK6pojB-103">
          <mxGeometry width="30" height="30" as="geometry" />
        </mxCell>
        <mxCell id="7S8hIyD1JX0GwFK6pojB-105" value="performance" style="shape=partialRectangle;connectable=0;fillColor=none;top=0;left=0;bottom=0;right=0;align=left;spacingLeft=6;overflow=hidden;" vertex="1" parent="7S8hIyD1JX0GwFK6pojB-103">
          <mxGeometry x="30" width="150" height="30" as="geometry" />
        </mxCell>
        <mxCell id="7S8hIyD1JX0GwFK6pojB-106" value="" style="shape=partialRectangle;collapsible=0;dropTarget=0;pointerEvents=0;fillColor=none;top=0;left=0;bottom=0;right=0;points=[[0,0.5],[1,0.5]];portConstraint=eastwest;" vertex="1" parent="7S8hIyD1JX0GwFK6pojB-87">
          <mxGeometry y="210" width="180" height="30" as="geometry" />
        </mxCell>
        <mxCell id="7S8hIyD1JX0GwFK6pojB-107" value="" style="shape=partialRectangle;connectable=0;fillColor=none;top=0;left=0;bottom=0;right=0;editable=1;overflow=hidden;" vertex="1" parent="7S8hIyD1JX0GwFK6pojB-106">
          <mxGeometry width="30" height="30" as="geometry" />
        </mxCell>
        <mxCell id="7S8hIyD1JX0GwFK6pojB-108" value="inner_performance" style="shape=partialRectangle;connectable=0;fillColor=none;top=0;left=0;bottom=0;right=0;align=left;spacingLeft=6;overflow=hidden;" vertex="1" parent="7S8hIyD1JX0GwFK6pojB-106">
          <mxGeometry x="30" width="150" height="30" as="geometry" />
        </mxCell>
        <mxCell id="7S8hIyD1JX0GwFK6pojB-109" value="" style="shape=partialRectangle;collapsible=0;dropTarget=0;pointerEvents=0;fillColor=none;top=0;left=0;bottom=0;right=0;points=[[0,0.5],[1,0.5]];portConstraint=eastwest;" vertex="1" parent="7S8hIyD1JX0GwFK6pojB-87">
          <mxGeometry y="240" width="180" height="30" as="geometry" />
        </mxCell>
        <mxCell id="7S8hIyD1JX0GwFK6pojB-110" value="" style="shape=partialRectangle;connectable=0;fillColor=none;top=0;left=0;bottom=0;right=0;editable=1;overflow=hidden;" vertex="1" parent="7S8hIyD1JX0GwFK6pojB-109">
          <mxGeometry width="30" height="30" as="geometry" />
        </mxCell>
        <mxCell id="7S8hIyD1JX0GwFK6pojB-111" value="contest_screen_name" style="shape=partialRectangle;connectable=0;fillColor=none;top=0;left=0;bottom=0;right=0;align=left;spacingLeft=6;overflow=hidden;" vertex="1" parent="7S8hIyD1JX0GwFK6pojB-109">
          <mxGeometry x="30" width="150" height="30" as="geometry" />
        </mxCell>
        <mxCell id="7S8hIyD1JX0GwFK6pojB-112" value="" style="shape=partialRectangle;collapsible=0;dropTarget=0;pointerEvents=0;fillColor=none;top=0;left=0;bottom=0;right=0;points=[[0,0.5],[1,0.5]];portConstraint=eastwest;" vertex="1" parent="7S8hIyD1JX0GwFK6pojB-87">
          <mxGeometry y="270" width="180" height="30" as="geometry" />
        </mxCell>
        <mxCell id="7S8hIyD1JX0GwFK6pojB-113" value="" style="shape=partialRectangle;connectable=0;fillColor=none;top=0;left=0;bottom=0;right=0;editable=1;overflow=hidden;" vertex="1" parent="7S8hIyD1JX0GwFK6pojB-112">
          <mxGeometry width="30" height="30" as="geometry" />
        </mxCell>
        <mxCell id="7S8hIyD1JX0GwFK6pojB-114" value="end_time" style="shape=partialRectangle;connectable=0;fillColor=none;top=0;left=0;bottom=0;right=0;align=left;spacingLeft=6;overflow=hidden;" vertex="1" parent="7S8hIyD1JX0GwFK6pojB-112">
          <mxGeometry x="30" width="150" height="30" as="geometry" />
        </mxCell>
        <mxCell id="7S8hIyD1JX0GwFK6pojB-115" value="" style="shape=partialRectangle;collapsible=0;dropTarget=0;pointerEvents=0;fillColor=none;top=0;left=0;bottom=0;right=0;points=[[0,0.5],[1,0.5]];portConstraint=eastwest;" vertex="1" parent="7S8hIyD1JX0GwFK6pojB-87">
          <mxGeometry y="300" width="180" height="30" as="geometry" />
        </mxCell>
        <mxCell id="7S8hIyD1JX0GwFK6pojB-116" value="FK" style="shape=partialRectangle;connectable=0;fillColor=none;top=0;left=0;bottom=0;right=0;editable=1;overflow=hidden;fontStyle=1" vertex="1" parent="7S8hIyD1JX0GwFK6pojB-115">
          <mxGeometry width="30" height="30" as="geometry" />
        </mxCell>
        <mxCell id="7S8hIyD1JX0GwFK6pojB-117" value="atcoder_user_id" style="shape=partialRectangle;connectable=0;fillColor=none;top=0;left=0;bottom=0;right=0;align=left;spacingLeft=6;overflow=hidden;" vertex="1" parent="7S8hIyD1JX0GwFK6pojB-115">
          <mxGeometry x="30" width="150" height="30" as="geometry" />
        </mxCell>
        <mxCell id="7S8hIyD1JX0GwFK6pojB-118" value="" style="shape=partialRectangle;collapsible=0;dropTarget=0;pointerEvents=0;fillColor=none;top=0;left=0;bottom=0;right=0;points=[[0,0.5],[1,0.5]];portConstraint=eastwest;" vertex="1" parent="7S8hIyD1JX0GwFK6pojB-87">
          <mxGeometry y="330" width="180" height="30" as="geometry" />
        </mxCell>
        <mxCell id="7S8hIyD1JX0GwFK6pojB-119" value="FK" style="shape=partialRectangle;connectable=0;fillColor=none;top=0;left=0;bottom=0;right=0;editable=1;overflow=hidden;fontStyle=1" vertex="1" parent="7S8hIyD1JX0GwFK6pojB-118">
          <mxGeometry width="30" height="30" as="geometry" />
        </mxCell>
        <mxCell id="7S8hIyD1JX0GwFK6pojB-120" value="contest_name" style="shape=partialRectangle;connectable=0;fillColor=none;top=0;left=0;bottom=0;right=0;align=left;spacingLeft=6;overflow=hidden;" vertex="1" parent="7S8hIyD1JX0GwFK6pojB-118">
          <mxGeometry x="30" width="150" height="30" as="geometry" />
        </mxCell>
        <mxCell id="7S8hIyD1JX0GwFK6pojB-55" value="contests" style="shape=table;startSize=30;container=1;collapsible=1;childLayout=tableLayout;fixedRows=1;rowLines=0;fontStyle=1;align=center;resizeLast=1;" vertex="1" parent="1">
          <mxGeometry x="-2160" y="800" width="180" height="220" as="geometry" />
        </mxCell>
        <mxCell id="7S8hIyD1JX0GwFK6pojB-56" value="" style="shape=partialRectangle;collapsible=0;dropTarget=0;pointerEvents=0;fillColor=none;top=0;left=0;bottom=1;right=0;points=[[0,0.5],[1,0.5]];portConstraint=eastwest;" vertex="1" parent="7S8hIyD1JX0GwFK6pojB-55">
          <mxGeometry y="30" width="180" height="30" as="geometry" />
        </mxCell>
        <mxCell id="7S8hIyD1JX0GwFK6pojB-57" value="PK" style="shape=partialRectangle;connectable=0;fillColor=none;top=0;left=0;bottom=0;right=0;fontStyle=1;overflow=hidden;" vertex="1" parent="7S8hIyD1JX0GwFK6pojB-56">
          <mxGeometry width="30" height="30" as="geometry" />
        </mxCell>
        <mxCell id="7S8hIyD1JX0GwFK6pojB-58" value="UniqueID" style="shape=partialRectangle;connectable=0;fillColor=none;top=0;left=0;bottom=0;right=0;align=left;spacingLeft=6;fontStyle=5;overflow=hidden;" vertex="1" parent="7S8hIyD1JX0GwFK6pojB-56">
          <mxGeometry x="30" width="150" height="30" as="geometry" />
        </mxCell>
        <mxCell id="7S8hIyD1JX0GwFK6pojB-59" value="" style="shape=partialRectangle;collapsible=0;dropTarget=0;pointerEvents=0;fillColor=none;top=0;left=0;bottom=0;right=0;points=[[0,0.5],[1,0.5]];portConstraint=eastwest;" vertex="1" parent="7S8hIyD1JX0GwFK6pojB-55">
          <mxGeometry y="60" width="180" height="30" as="geometry" />
        </mxCell>
        <mxCell id="7S8hIyD1JX0GwFK6pojB-60" value="" style="shape=partialRectangle;connectable=0;fillColor=none;top=0;left=0;bottom=0;right=0;editable=1;overflow=hidden;" vertex="1" parent="7S8hIyD1JX0GwFK6pojB-59">
          <mxGeometry width="30" height="30" as="geometry" />
        </mxCell>
        <mxCell id="7S8hIyD1JX0GwFK6pojB-61" value="name" style="shape=partialRectangle;connectable=0;fillColor=none;top=0;left=0;bottom=0;right=0;align=left;spacingLeft=6;overflow=hidden;" vertex="1" parent="7S8hIyD1JX0GwFK6pojB-59">
          <mxGeometry x="30" width="150" height="30" as="geometry" />
        </mxCell>
        <mxCell id="7S8hIyD1JX0GwFK6pojB-62" value="" style="shape=partialRectangle;collapsible=0;dropTarget=0;pointerEvents=0;fillColor=none;top=0;left=0;bottom=0;right=0;points=[[0,0.5],[1,0.5]];portConstraint=eastwest;" vertex="1" parent="7S8hIyD1JX0GwFK6pojB-55">
          <mxGeometry y="90" width="180" height="30" as="geometry" />
        </mxCell>
        <mxCell id="7S8hIyD1JX0GwFK6pojB-63" value="" style="shape=partialRectangle;connectable=0;fillColor=none;top=0;left=0;bottom=0;right=0;editable=1;overflow=hidden;" vertex="1" parent="7S8hIyD1JX0GwFK6pojB-62">
          <mxGeometry width="30" height="30" as="geometry" />
        </mxCell>
        <mxCell id="7S8hIyD1JX0GwFK6pojB-64" value="start_epoch_second" style="shape=partialRectangle;connectable=0;fillColor=none;top=0;left=0;bottom=0;right=0;align=left;spacingLeft=6;overflow=hidden;" vertex="1" parent="7S8hIyD1JX0GwFK6pojB-62">
          <mxGeometry x="30" width="150" height="30" as="geometry" />
        </mxCell>
        <mxCell id="7S8hIyD1JX0GwFK6pojB-65" value="" style="shape=partialRectangle;collapsible=0;dropTarget=0;pointerEvents=0;fillColor=none;top=0;left=0;bottom=0;right=0;points=[[0,0.5],[1,0.5]];portConstraint=eastwest;" vertex="1" parent="7S8hIyD1JX0GwFK6pojB-55">
          <mxGeometry y="120" width="180" height="30" as="geometry" />
        </mxCell>
        <mxCell id="7S8hIyD1JX0GwFK6pojB-66" value="" style="shape=partialRectangle;connectable=0;fillColor=none;top=0;left=0;bottom=0;right=0;editable=1;overflow=hidden;" vertex="1" parent="7S8hIyD1JX0GwFK6pojB-65">
          <mxGeometry width="30" height="30" as="geometry" />
        </mxCell>
        <mxCell id="7S8hIyD1JX0GwFK6pojB-67" value="duration_second" style="shape=partialRectangle;connectable=0;fillColor=none;top=0;left=0;bottom=0;right=0;align=left;spacingLeft=6;overflow=hidden;" vertex="1" parent="7S8hIyD1JX0GwFK6pojB-65">
          <mxGeometry x="30" width="150" height="30" as="geometry" />
        </mxCell>
        <mxCell id="7S8hIyD1JX0GwFK6pojB-81" value="" style="shape=partialRectangle;collapsible=0;dropTarget=0;pointerEvents=0;fillColor=none;top=0;left=0;bottom=0;right=0;points=[[0,0.5],[1,0.5]];portConstraint=eastwest;" vertex="1" parent="7S8hIyD1JX0GwFK6pojB-55">
          <mxGeometry y="150" width="180" height="30" as="geometry" />
        </mxCell>
        <mxCell id="7S8hIyD1JX0GwFK6pojB-82" value="" style="shape=partialRectangle;connectable=0;fillColor=none;top=0;left=0;bottom=0;right=0;editable=1;overflow=hidden;" vertex="1" parent="7S8hIyD1JX0GwFK6pojB-81">
          <mxGeometry width="30" height="30" as="geometry" />
        </mxCell>
        <mxCell id="7S8hIyD1JX0GwFK6pojB-83" value="title" style="shape=partialRectangle;connectable=0;fillColor=none;top=0;left=0;bottom=0;right=0;align=left;spacingLeft=6;overflow=hidden;" vertex="1" parent="7S8hIyD1JX0GwFK6pojB-81">
          <mxGeometry x="30" width="150" height="30" as="geometry" />
        </mxCell>
        <mxCell id="7S8hIyD1JX0GwFK6pojB-84" value="" style="shape=partialRectangle;collapsible=0;dropTarget=0;pointerEvents=0;fillColor=none;top=0;left=0;bottom=0;right=0;points=[[0,0.5],[1,0.5]];portConstraint=eastwest;" vertex="1" parent="7S8hIyD1JX0GwFK6pojB-55">
          <mxGeometry y="180" width="180" height="30" as="geometry" />
        </mxCell>
        <mxCell id="7S8hIyD1JX0GwFK6pojB-85" value="" style="shape=partialRectangle;connectable=0;fillColor=none;top=0;left=0;bottom=0;right=0;editable=1;overflow=hidden;" vertex="1" parent="7S8hIyD1JX0GwFK6pojB-84">
          <mxGeometry width="30" height="30" as="geometry" />
        </mxCell>
        <mxCell id="7S8hIyD1JX0GwFK6pojB-86" value="rate_change" style="shape=partialRectangle;connectable=0;fillColor=none;top=0;left=0;bottom=0;right=0;align=left;spacingLeft=6;overflow=hidden;" vertex="1" parent="7S8hIyD1JX0GwFK6pojB-84">
          <mxGeometry x="30" width="150" height="30" as="geometry" />
        </mxCell>
        <mxCell id="7S8hIyD1JX0GwFK6pojB-42" value="problems" style="shape=table;startSize=30;container=1;collapsible=1;childLayout=tableLayout;fixedRows=1;rowLines=0;fontStyle=1;align=center;resizeLast=1;" vertex="1" parent="1">
          <mxGeometry x="-1880" y="800" width="180" height="160" as="geometry" />
        </mxCell>
        <mxCell id="7S8hIyD1JX0GwFK6pojB-43" value="" style="shape=partialRectangle;collapsible=0;dropTarget=0;pointerEvents=0;fillColor=none;top=0;left=0;bottom=1;right=0;points=[[0,0.5],[1,0.5]];portConstraint=eastwest;" vertex="1" parent="7S8hIyD1JX0GwFK6pojB-42">
          <mxGeometry y="30" width="180" height="30" as="geometry" />
        </mxCell>
        <mxCell id="7S8hIyD1JX0GwFK6pojB-44" value="PK" style="shape=partialRectangle;connectable=0;fillColor=none;top=0;left=0;bottom=0;right=0;fontStyle=1;overflow=hidden;" vertex="1" parent="7S8hIyD1JX0GwFK6pojB-43">
          <mxGeometry width="30" height="30" as="geometry" />
        </mxCell>
        <mxCell id="7S8hIyD1JX0GwFK6pojB-45" value="UniqueID" style="shape=partialRectangle;connectable=0;fillColor=none;top=0;left=0;bottom=0;right=0;align=left;spacingLeft=6;fontStyle=5;overflow=hidden;" vertex="1" parent="7S8hIyD1JX0GwFK6pojB-43">
          <mxGeometry x="30" width="150" height="30" as="geometry" />
        </mxCell>
        <mxCell id="7S8hIyD1JX0GwFK6pojB-46" value="" style="shape=partialRectangle;collapsible=0;dropTarget=0;pointerEvents=0;fillColor=none;top=0;left=0;bottom=0;right=0;points=[[0,0.5],[1,0.5]];portConstraint=eastwest;" vertex="1" parent="7S8hIyD1JX0GwFK6pojB-42">
          <mxGeometry y="60" width="180" height="30" as="geometry" />
        </mxCell>
        <mxCell id="7S8hIyD1JX0GwFK6pojB-47" value="" style="shape=partialRectangle;connectable=0;fillColor=none;top=0;left=0;bottom=0;right=0;editable=1;overflow=hidden;" vertex="1" parent="7S8hIyD1JX0GwFK6pojB-46">
          <mxGeometry width="30" height="30" as="geometry" />
        </mxCell>
        <mxCell id="7S8hIyD1JX0GwFK6pojB-48" value="name" style="shape=partialRectangle;connectable=0;fillColor=none;top=0;left=0;bottom=0;right=0;align=left;spacingLeft=6;overflow=hidden;" vertex="1" parent="7S8hIyD1JX0GwFK6pojB-46">
          <mxGeometry x="30" width="150" height="30" as="geometry" />
        </mxCell>
        <mxCell id="7S8hIyD1JX0GwFK6pojB-49" value="" style="shape=partialRectangle;collapsible=0;dropTarget=0;pointerEvents=0;fillColor=none;top=0;left=0;bottom=0;right=0;points=[[0,0.5],[1,0.5]];portConstraint=eastwest;" vertex="1" parent="7S8hIyD1JX0GwFK6pojB-42">
          <mxGeometry y="90" width="180" height="30" as="geometry" />
        </mxCell>
        <mxCell id="7S8hIyD1JX0GwFK6pojB-50" value="" style="shape=partialRectangle;connectable=0;fillColor=none;top=0;left=0;bottom=0;right=0;editable=1;overflow=hidden;" vertex="1" parent="7S8hIyD1JX0GwFK6pojB-49">
          <mxGeometry width="30" height="30" as="geometry" />
        </mxCell>
        <mxCell id="7S8hIyD1JX0GwFK6pojB-51" value="title" style="shape=partialRectangle;connectable=0;fillColor=none;top=0;left=0;bottom=0;right=0;align=left;spacingLeft=6;overflow=hidden;" vertex="1" parent="7S8hIyD1JX0GwFK6pojB-49">
          <mxGeometry x="30" width="150" height="30" as="geometry" />
        </mxCell>
        <mxCell id="7S8hIyD1JX0GwFK6pojB-52" value="" style="shape=partialRectangle;collapsible=0;dropTarget=0;pointerEvents=0;fillColor=none;top=0;left=0;bottom=0;right=0;points=[[0,0.5],[1,0.5]];portConstraint=eastwest;" vertex="1" parent="7S8hIyD1JX0GwFK6pojB-42">
          <mxGeometry y="120" width="180" height="30" as="geometry" />
        </mxCell>
        <mxCell id="7S8hIyD1JX0GwFK6pojB-53" value="FK" style="shape=partialRectangle;connectable=0;fillColor=none;top=0;left=0;bottom=0;right=0;editable=1;overflow=hidden;fontStyle=1" vertex="1" parent="7S8hIyD1JX0GwFK6pojB-52">
          <mxGeometry width="30" height="30" as="geometry" />
        </mxCell>
        <mxCell id="7S8hIyD1JX0GwFK6pojB-54" value="contest_name" style="shape=partialRectangle;connectable=0;fillColor=none;top=0;left=0;bottom=0;right=0;align=left;spacingLeft=6;overflow=hidden;" vertex="1" parent="7S8hIyD1JX0GwFK6pojB-52">
          <mxGeometry x="30" width="150" height="30" as="geometry" />
        </mxCell>
        <mxCell id="7S8hIyD1JX0GwFK6pojB-247" style="edgeStyle=orthogonalEdgeStyle;rounded=0;orthogonalLoop=1;jettySize=auto;html=1;exitX=0;exitY=0.5;exitDx=0;exitDy=0;entryX=0;entryY=0.5;entryDx=0;entryDy=0;" edge="1" parent="1" source="7S8hIyD1JX0GwFK6pojB-118" target="7S8hIyD1JX0GwFK6pojB-59">
          <mxGeometry relative="1" as="geometry" />
        </mxCell>
        <mxCell id="7S8hIyD1JX0GwFK6pojB-248" style="edgeStyle=orthogonalEdgeStyle;rounded=0;orthogonalLoop=1;jettySize=auto;html=1;exitX=0;exitY=0.5;exitDx=0;exitDy=0;entryX=0;entryY=0.5;entryDx=0;entryDy=0;" edge="1" parent="1" source="7S8hIyD1JX0GwFK6pojB-115" target="7S8hIyD1JX0GwFK6pojB-177">
          <mxGeometry relative="1" as="geometry" />
        </mxCell>
        <mxCell id="7S8hIyD1JX0GwFK6pojB-249" style="edgeStyle=orthogonalEdgeStyle;rounded=0;orthogonalLoop=1;jettySize=auto;html=1;exitX=0;exitY=0.5;exitDx=0;exitDy=0;entryX=1;entryY=0.5;entryDx=0;entryDy=0;" edge="1" parent="1" source="7S8hIyD1JX0GwFK6pojB-167" target="7S8hIyD1JX0GwFK6pojB-59">
          <mxGeometry relative="1" as="geometry" />
        </mxCell>
        <mxCell id="7S8hIyD1JX0GwFK6pojB-251" style="edgeStyle=orthogonalEdgeStyle;rounded=0;orthogonalLoop=1;jettySize=auto;html=1;exitX=0;exitY=0.5;exitDx=0;exitDy=0;entryX=0;entryY=0.5;entryDx=0;entryDy=0;" edge="1" parent="1" source="7S8hIyD1JX0GwFK6pojB-170" target="7S8hIyD1JX0GwFK6pojB-46">
          <mxGeometry relative="1" as="geometry" />
        </mxCell>
        <mxCell id="7S8hIyD1JX0GwFK6pojB-252" style="edgeStyle=orthogonalEdgeStyle;rounded=0;orthogonalLoop=1;jettySize=auto;html=1;exitX=0;exitY=0.5;exitDx=0;exitDy=0;entryX=1;entryY=0.5;entryDx=0;entryDy=0;" edge="1" parent="1" source="7S8hIyD1JX0GwFK6pojB-52" target="7S8hIyD1JX0GwFK6pojB-59">
          <mxGeometry relative="1" as="geometry">
            <Array as="points">
              <mxPoint x="-1930" y="935" />
              <mxPoint x="-1930" y="875" />
            </Array>
          </mxGeometry>
        </mxCell>
      </root>
    </mxGraphModel>
  </diagram>
</mxfile>
